<?xml version="1.0" encoding="utf-8"?>
<!-- Generator: Adobe Illustrator 19.2.1, SVG Export Plug-In . SVG Version: 6.00 Build 0)  -->
<svg version="1.1" id="layer" xmlns="http://www.w3.org/2000/svg" xmlns:xlink="http://www.w3.org/1999/xlink" x="0px" y="0px"
	 viewBox="20 220 610 220" style="enable-background:new 0 0 652 652;" xml:space="preserve">
<style type="text/css">
	.st0{fill:#FCD72B;}
	.st1{fill:#FFFFFF;}
</style>
<path d="M297.6,361.6l-5.6-16.7h-36l-5.6,16.7h-16.4l31.2-89.1h17.8l31.2,89.1H297.6z M260.4,331.2h27l-13.3-39.4h-0.5L260.4,331.2z
	 M322.7,361.6v-89.1h15v89.1H322.7z M387.2,299.2c7.8,0,14.3,3,19.5,8.9c5.3,5.9,7.9,13.7,7.9,23.2c0,9.4-2.6,17.1-7.9,23
	c-5.3,5.9-11.8,8.9-19.5,8.9c-4,0-7.6-0.8-10.9-2.4c-3.3-1.7-5.7-3.9-7.3-6.5h-0.4v35.9h-15v-89.4h13.6l0.6,7.8h0.5
	c1.6-2.8,4.1-5,7.5-6.7S383.1,299.2,387.2,299.2z M383.6,349.6c4.7,0,8.4-1.7,11.3-5c2.9-3.3,4.4-7.8,4.4-13.4
	c0-5.7-1.5-10.2-4.4-13.5c-2.8-3.3-6.6-5-11.3-5c-4.3,0-7.8,1.4-10.8,4.2c-2.8,2.7-4.3,6.1-4.3,10.1v8.3c0,4,1.4,7.4,4.3,10.2
	C375.8,348.2,379.4,349.6,383.6,349.6z M471.1,300.7h13.6v60.9h-13.6l-0.8-7.8H470c-1.7,2.8-4.2,5-7.6,6.7c-3.3,1.7-7,2.5-11.1,2.5
	c-7.8,0-14.4-3-19.6-8.9c-5.3-5.9-7.9-13.6-7.9-23c0-9.4,2.6-17.1,7.9-23c5.3-6,11.8-9,19.6-9c4.1,0,7.8,0.8,11.1,2.5
	c3.4,1.7,6,3.9,7.6,6.7h0.4L471.1,300.7z M469.7,335.3V327c0-4-1.5-7.3-4.4-10.1c-2.8-2.8-6.4-4.2-10.8-4.2c-4.6,0-8.3,1.7-11.3,5
	c-2.9,3.3-4.4,7.8-4.4,13.5c0,5.6,1.5,10,4.4,13.4c2.9,3.3,6.7,5,11.3,5c4.3,0,7.9-1.4,10.8-4.1
	C468.2,342.7,469.7,339.3,469.7,335.3z M527.7,363.2c-8.9,0-16.3-3-22-8.9c-5.7-5.9-8.5-13.6-8.5-23c0-9.4,2.8-17.1,8.5-23
	c5.8-6,13.1-9,22.2-9c7.6,0,14,2.1,19.3,6.4c5.3,4.2,8.4,9.8,9.5,16.8l-15.1,2.4c-0.6-3.6-2.2-6.5-4.8-8.7c-2.5-2.2-5.5-3.3-9-3.3
	c-4.4,0-8.1,1.7-11,5.1c-2.8,3.3-4.3,7.8-4.3,13.4c0,5.6,1.4,10,4.3,13.4c2.9,3.3,6.6,5,11.1,5c3.5,0,6.5-1,9.1-3.1
	c2.7-2.1,4.3-5,5-8.7l14.6,2.4c-1.1,6.9-4.3,12.4-9.6,16.7C541.7,361.1,535.2,363.2,527.7,363.2z M612.1,300.7h13.6v60.9h-13.6
	l-0.8-7.8h-0.4c-1.7,2.8-4.2,5-7.6,6.7c-3.3,1.7-7.1,2.5-11.1,2.5c-7.8,0-14.4-3-19.6-8.9c-5.3-5.9-7.9-13.6-7.9-23
	c0-9.4,2.6-17.1,7.9-23c5.3-6,11.8-9,19.6-9c4.1,0,7.8,0.8,11.1,2.5c3.4,1.7,6,3.9,7.6,6.7h0.4L612.1,300.7z M610.7,335.3V327
	c0-4-1.5-7.3-4.4-10.1c-2.8-2.8-6.4-4.2-10.8-4.2c-4.6,0-8.3,1.7-11.3,5s-4.4,7.8-4.4,13.5c0,5.6,1.5,10,4.4,13.4s6.7,5,11.3,5
	c4.3,0,7.9-1.4,10.8-4.1C609.2,342.7,610.7,339.3,610.7,335.3z"/>
<path class="st0" d="M111.3,407c47.3,0,85.6-38.3,85.6-85.6c0-47.3-38.3-85.6-85.6-85.6c-47.3,0-85.6,38.3-85.6,85.6
	C25.7,368.7,64,407,111.3,407z"/>
<path class="st1" d="M144.3,397.8c-1.3,0-2.5-0.5-3.4-1.4c-0.9-0.9-1.4-2.1-1.4-3.4V307c0-4.1-1-8.1-3-11.8c-2-3.6-4.8-6.7-8.2-8.9
	c1.1-1.7,1.6-3.7,1.7-5.7c0-2-0.5-4-1.5-5.8c-1-1.8-2.4-3.2-4.2-4.3c-1.7-1-3.7-1.6-5.8-1.6v9.5h-0.2c-0.4-2.7-1.8-5.1-3.9-6.8
	c-2.1-1.7-4.7-2.7-7.4-2.7v13.3h-3.8v0c-5.6,0.2-11,2.7-14.8,6.7c-3.9,4.1-6.1,9.5-6.1,15.1c0,0,0,0.1,0,0.1l-12.8,8.3
	c0.9,5.4,3.6,10.2,7.7,13.8c4.1,3.5,8.6,5.5,14,5.5c0.2,0,0.4,0,0.6,0l-7.7,81l54.7,3.8l2.9-7.1l54.7-1.9v-9.7H144.3z"/>
<path class="st0" d="M94.6,308.2c0-0.7,0.3-1.4,0.8-1.8c0.5-0.5,1.2-0.8,1.8-0.8h7.6c0,1.4-0.6,2.7-1.5,3.7c-1,1-2.3,1.5-3.7,1.5
	h-5.2L94.6,308.2z"/>
</svg>
